<?xml version="1.0" encoding="UTF-8"?>
<svg id="_图层_2" data-name="图层 2" xmlns="http://www.w3.org/2000/svg" viewBox="0 0 715 715">
  <path d="M357.5,715c-48.24,0-95.06-9.46-139.17-28.12-42.58-18.01-80.8-43.78-113.62-76.59-32.82-32.82-58.59-71.04-76.59-113.62C9.46,452.56,0,405.74,0,357.5s9.46-95.06,28.11-139.17c18.01-42.58,43.78-80.8,76.59-113.62,32.82-32.82,71.04-58.59,113.62-76.59C262.44,9.46,309.26,0,357.5,0s95.06,9.46,139.17,28.11c42.58,18.01,80.8,43.78,113.62,76.59,32.82,32.82,58.59,71.04,76.59,113.62,18.66,44.11,28.12,90.93,28.12,139.17s-9.46,95.06-28.12,139.17c-18.01,42.58-43.78,80.8-76.59,113.62s-71.04,58.59-113.62,76.59c-44.11,18.66-90.93,28.12-139.17,28.12Zm0-615c-141.99,0-257.5,115.51-257.5,257.5s115.51,257.5,257.5,257.5,257.5-115.51,257.5-257.5S499.49,100,357.5,100Z"/>
</svg>